# xmcd CD database file
#
# Track frame offsets:
#	150
#	10863
#	24093
#	35568
#	48651
#	60152
#	74030
#	87980
#	104393
#	118008
#	131757
#	151375
#	166394
#	185214
#	206687
#	225979
#	237456
#	258111
#	275381
#	292471
#	316154
#	330115
#
# Disc length: 4584 seconds
#
# Revision: 0
# Processed by: cddbd v1.5.2PL0 Copyright (c) Steve Scherf et al.
# Submitted via: CDex 1.70beta2
#
DISCID=3811e616
DTITLE=Various Artist - Battle Of Trombones
DYEAR=2005
DGENRE=Jazz
TTITLE0=Tommy Dorsey - Ja-Da
TTITLE1=Dickie Wells - Between The Devil And The Deep Blue Sea
TTITLE2=J. C. Higginbotham - That's How I Feel Today
TTITLE3=Dickie Wells - Hangin' Around Boudon
TTITLE4=Tyree Glenn - A Wee Bit Of Swing
TTITLE5=Jack Teagarden - Diane
TTITLE6=Brad Gowans - Strut Miss Lizzie
TTITLE7=Glenn Miller - Hallelujah
TTITLE8=J. C. Higginbotham - The Sheik Of Araby
TTITLE9=Brad Gowans - It's Right Here For You
TTITLE10=Miff Mole - A Good Man Is Hard To Find
TTITLE11=Jack Teagarden - The Blues
TTITLE12=George Brunies - That's A Plenty
TTITLE13=Vic Dickinson - Bugle Call Rag
TTITLE14=Dickie Wells - I'm Fer It Too
TTITLE15=Ray Conniff - Sweet Georgia Brown
TTITLE16=Lou McGarity - When Day Is Done
TTITLE17=Benny Morton - Steamin' And Beamin'
TTITLE18=Lawrence Brown - The Little Goose
TTITLE19=Dickie Wells - Six Cats And A Prince
TTITLE20=Trummy Young - Fruitie Cutie
TTITLE21=Jack Teagarden - St. Louis Blues
EXTD=YEAR: 2005
EXTT0=
EXTT1=
EXTT2=
EXTT3=
EXTT4=
EXTT5=
EXTT6=
EXTT7=
EXTT8=
EXTT9=
EXTT10=
EXTT11=
EXTT12=
EXTT13=
EXTT14=
EXTT15=
EXTT16=
EXTT17=
EXTT18=
EXTT19=
EXTT20=
EXTT21=
PLAYORDER=
